<svg xmlns="http://www.w3.org/2000/svg" viewBox="0 0 64 64" id="web-programming">
  <g>
    <rect width="58" height="48" x="3" y="8" fill="#d6ecf9" rx="4" ry="4"></rect>
    <path fill="#1a1a1a" d="M7,8H57a4,4,0,0,1,4,4v8a0,0,0,0,1,0,0H3a0,0,0,0,1,0,0V12A4,4,0,0,1,7,8Z"></path>
    <circle cx="11" cy="14" r="2" fill="red"></circle>
    <circle cx="20" cy="14" r="2" fill="#ff0"></circle>
    <circle cx="29" cy="14" r="2" fill="#0f0"></circle>
    <path fill="#050505" d="M57,7H7a5,5,0,0,0-5,5V52a5,5,0,0,0,5,5H57a5,5,0,0,0,5-5V12A5,5,0,0,0,57,7ZM7,9H57a3,3,0,0,1,3,3v7H4V12A3,3,0,0,1,7,9ZM57,55H7a3,3,0,0,1-3-3V21H60V52A3,3,0,0,1,57,55Z"></path>
    <path fill="#0c68af" d="M25 46a1 1 0 0 1-.54-.16l-11-7a1 1 0 0 1 0-1.69l11-7a1 1 0 0 1 1.07 1.69L15.86 38l9.67 6.16A1 1 0 0 1 25 46zM39 46a1 1 0 0 1-.54-1.84L48.14 38l-9.67-6.16a1 1 0 1 1 1.07-1.69l11 7a1 1 0 0 1 0 1.69l-11 7A1 1 0 0 1 39 46zM29 48a1 1 0 0 1-.95-1.32l6-18a1 1 0 0 1 1.9.63l-6 18A1 1 0 0 1 29 48z"></path>
  </g>
</svg>
